<svg width="40" height="40" viewBox="0 0 40 40" fill="none" xmlns="http://www.w3.org/2000/svg">
<g clip-path="url(#clip0_56_41)">
<path d="M39.9839 10.2109C39.9839 8.98437 39.8823 7.75781 39.5855 6.5625C39.062 4.375 37.812 2.71094 35.9526 1.48438C34.9995 0.859375 33.9448 0.476562 32.8198 0.273438C31.9605 0.117188 31.0854 0.046875 30.2183 0.0234375L30.0073 0H9.96826C9.71826 0.0234375 9.46045 0.03125 9.21045 0.046875C7.96826 0.117188 6.73389 0.25 5.5542 0.71875C3.33545 1.59375 1.72607 3.13281 0.788574 5.34375C0.460449 6.09375 0.296387 6.89062 0.179199 7.69531C0.0854492 8.34375 0.0307617 9.00781 0.00732422 9.66406L-0.00830078 9.82031V30.1875C0.00732422 30.4219 0.0151367 30.6562 0.0307617 30.8906C0.116699 32.25 0.288574 33.6016 0.866699 34.8516C1.94482 37.2188 3.76514 38.7734 6.25732 39.5156C6.95264 39.7344 7.6792 39.8281 8.41357 39.8906C9.33545 39.9844 10.2651 39.9922 11.187 39.9922H29.5698C30.4448 39.9922 31.312 39.9375 32.187 39.8203C33.562 39.6484 34.8511 39.2422 36.0151 38.4766C37.4136 37.5547 38.4683 36.3281 39.148 34.7969C39.4605 34.0937 39.6323 33.3438 39.7651 32.5938C39.9526 31.4688 39.9917 30.3281 39.9917 29.1875C39.9839 22.8594 39.9917 16.5313 39.9839 10.2031V10.2109ZM29.2808 16.8594V26.375C29.2808 27.0703 29.187 27.7578 28.8745 28.3828C28.3901 29.3672 27.6089 29.9844 26.562 30.2813C25.9839 30.4531 25.3823 30.5391 24.7808 30.5703C23.2026 30.6484 21.8276 29.5781 21.5464 28.0156C21.3042 26.7266 21.9214 25.3047 23.2808 24.6406C23.812 24.3828 24.3901 24.2266 24.9761 24.1094C25.6089 23.9766 26.2417 23.8516 26.8667 23.7031C27.3276 23.6016 27.6245 23.3203 27.7183 22.8437L27.7495 22.5234C27.7495 19.5 27.7495 16.4688 27.7495 13.4453L27.7026 13.1406C27.6401 12.8906 27.4526 12.7344 27.1948 12.75C26.9292 12.7656 26.6714 12.8047 26.4058 12.8594C25.1323 13.1094 23.8667 13.3594 22.6011 13.6172L16.437 14.8594L16.3511 14.8828C15.8901 15.0156 15.7261 15.2188 15.7026 15.7031V15.9141C15.6948 20.25 15.7026 24.5859 15.6948 28.9219C15.6948 29.625 15.6167 30.3125 15.3354 30.9687C14.8745 32.0391 14.0542 32.7109 12.9448 33.0234C12.3589 33.1953 11.7573 33.2891 11.1479 33.3125C9.5542 33.375 8.22607 32.3125 7.95264 30.7422C7.71826 29.3906 8.33545 27.9297 9.87451 27.2813C10.4761 27.0313 11.0933 26.8984 11.7261 26.7656C12.2026 26.6719 12.687 26.5703 13.1558 26.4766C13.7964 26.3437 14.1245 25.9375 14.1558 25.2891V25.0391C14.1558 20.1016 14.1558 15.1719 14.1558 10.2344C14.1558 10.0234 14.1792 9.82031 14.2261 9.61719C14.3433 9.14062 14.6792 8.86719 15.1401 8.75781C15.562 8.64844 15.9995 8.57031 16.4292 8.47656C17.6558 8.22656 18.8667 7.98437 20.0933 7.74219L23.8745 6.97656C24.9917 6.75781 26.1089 6.53125 27.2261 6.30469C27.5933 6.23437 27.9605 6.15625 28.3355 6.125C28.8511 6.07813 29.2104 6.40625 29.2573 6.92969C29.2729 7.05469 29.2808 7.17969 29.2808 7.29688C29.2808 10.4844 29.2808 13.6641 29.2808 16.8594Z" fill="black"/>
</g>
<defs>
<clipPath id="clip0_56_41">
<rect width="40" height="40" fill="white"/>
</clipPath>
</defs>
</svg>
