<svg width="40" height="40" viewBox="0 0 41 40" fill="none" xmlns="http://www.w3.org/2000/svg">
<g clip-path="url(#clip0_56_47)">
<g clip-path="url(#clip1_56_47)">
<path d="M32.3206 0H9.22608C4.67151 0 0.978027 3.69348 0.978027 8.24805V31.3426C0.978027 35.8972 4.67151 39.5907 9.22608 39.5907H32.3206C36.8769 39.5907 40.5687 35.8972 40.5687 31.3426V8.24805C40.5687 3.69348 36.8769 0 32.3206 0ZM27.3718 11.5473H24.198C23.1834 11.5473 22.423 11.963 22.423 13.0138V14.8465H27.3718L26.9792 19.7953H22.423V32.9922H17.4741V19.7953H14.1749V14.8465H17.4741V11.6743C17.4741 8.33878 19.2293 6.59844 23.1834 6.59844H27.3718V11.5473Z" fill="black"/>
</g>
</g>
<defs>
<clipPath id="clip0_56_47">
<rect width="40" height="40" fill="white" transform="translate(0.89502)"/>
</clipPath>
<clipPath id="clip1_56_47">
<rect width="39.5907" height="39.5907" fill="white" transform="translate(0.978027)"/>
</clipPath>
</defs>
</svg>
