<svg width="40" height="40" viewBox="0 0 41 40" fill="none" xmlns="http://www.w3.org/2000/svg">
<g clip-path="url(#clip0_56_49)">
<path d="M26.2209 9.14667C24.8159 9.08333 24.3925 9.07 20.8325 9.07C17.2725 9.07 16.8509 9.08333 15.4459 9.14667C11.8292 9.31167 10.1442 11.025 9.98085 14.6117C9.91585 16.0183 9.90085 16.44 9.90085 20C9.90085 23.56 9.91585 23.9817 9.97919 25.3883C10.1442 28.9683 11.8225 30.6883 15.4442 30.8533C16.8492 30.9167 17.2725 30.9317 20.8325 30.9317C24.3942 30.9317 24.8159 30.9183 26.2209 30.855C29.8375 30.69 31.5209 28.9733 31.6859 25.39C31.7492 23.9833 31.7625 23.5617 31.7625 20.0017C31.7625 16.4417 31.7492 16.02 31.6859 14.615C31.5209 11.0267 29.8342 9.31167 26.2209 9.14667V9.14667ZM20.8325 26.8467C17.0509 26.8467 13.9859 23.7817 13.9859 20C13.9859 16.2183 17.0525 13.1533 20.8325 13.1533C24.6125 13.1533 27.6792 16.2183 27.6792 20C27.6792 23.7817 24.6142 26.8467 20.8325 26.8467ZM27.9509 14.4833C27.0675 14.4833 26.3509 13.7667 26.3509 12.8833C26.3509 12 27.0675 11.2833 27.9509 11.2833C28.8342 11.2833 29.5509 12 29.5509 12.8833C29.5509 13.7667 28.8342 14.4833 27.9509 14.4833ZM25.2775 20C25.2775 22.455 23.2875 24.445 20.8325 24.445C18.3775 24.445 16.3875 22.455 16.3875 20C16.3875 17.545 18.3775 15.555 20.8325 15.555C23.2875 15.555 25.2775 17.545 25.2775 20ZM32.4992 0H9.16585C4.56419 0 0.83252 3.73167 0.83252 8.33333V31.6667C0.83252 36.2683 4.56419 40 9.16585 40H32.4992C37.1025 40 40.8325 36.2683 40.8325 31.6667V8.33333C40.8325 3.73167 37.1025 0 32.4992 0V0ZM34.0859 25.4967C33.8659 30.345 31.1675 33.0317 26.3309 33.2533C24.9075 33.3183 24.4542 33.3333 20.8325 33.3333C17.2109 33.3333 16.7592 33.3183 15.3359 33.2533C10.4892 33.0317 7.80252 30.34 7.57919 25.4967C7.51419 24.075 7.49919 23.6217 7.49919 20C7.49919 16.38 7.51419 15.925 7.57919 14.5033C7.80252 9.65667 10.4925 6.96833 15.3359 6.74833C16.7592 6.68167 17.2109 6.66667 20.8325 6.66667C24.4542 6.66667 24.9075 6.68167 26.3309 6.74667C31.1775 6.96833 33.8692 9.665 34.0859 14.5017C34.1509 15.925 34.1659 16.38 34.1659 20C34.1659 23.6217 34.1509 24.075 34.0859 25.4967V25.4967Z" fill="black"/>
</g>
<defs>
<clipPath id="clip0_56_49">
<rect width="40" height="40" fill="white" transform="translate(0.83252)"/>
</clipPath>
</defs>
</svg>
