<svg width="40" height="40" viewBox="0 0 41 40" fill="none" xmlns="http://www.w3.org/2000/svg">
<g clip-path="url(#clip0_56_44)">
<path d="M20.0625 0C9.05469 0 0.0625 8.99219 0.0625 20C0.0625 31.0078 9.05469 40 20.0625 40C31.0703 40 40.0625 31.0078 40.0625 20C40.0625 8.99219 31.1641 0 20.0625 0ZM29.2656 28.8984C28.8672 29.5 28.1641 29.6953 27.5625 29.2969C22.8594 26.3984 16.9609 25.7969 9.96094 27.3984C9.26562 27.6016 8.66406 27.1016 8.46094 26.5C8.26562 25.8047 8.75781 25.2031 9.35938 25.0078C16.9609 23.3047 23.5625 24 28.7578 27.2109C29.4609 27.5 29.5625 28.2969 29.2656 28.8984ZM31.6641 23.3984C31.1641 24.1016 30.2656 24.3984 29.5625 23.8984C24.1641 20.5937 15.9609 19.6016 9.66406 21.6016C8.85938 21.7969 7.96094 21.3984 7.76562 20.6016C7.5625 19.8047 7.96094 18.9062 8.76563 18.7031C16.0703 16.5 25.0703 17.6094 31.2656 21.4062C31.8672 21.6953 32.1641 22.7031 31.6641 23.3984ZM31.8672 17.7969C25.4609 13.9922 14.7656 13.5937 8.66406 15.5C7.66406 15.7969 6.66406 15.2031 6.36719 14.2969C6.07031 13.2969 6.66406 12.2969 7.5625 12C14.6641 9.89844 26.3672 10.2969 33.7656 14.7031C34.6641 15.2031 34.9609 16.4062 34.4609 17.3047C33.9609 18 32.7656 18.2969 31.8672 17.7969Z" fill="black"/>
</g>
<defs>
<clipPath id="clip0_56_44">
<rect width="40" height="40" fill="white" transform="translate(0.0625)"/>
</clipPath>
</defs>
</svg>
